<?xml version="1.0" encoding="UTF-8" standalone="no"?>
<!-- Created with Inkscape (http://www.inkscape.org/) -->

<svg
   width="20.32mm"
   height="128.5mm"
   viewBox="0 0 20.32 128.5"
   version="1.1"
   id="svg5"
   inkscape:version="1.1.1 (3bf5ae0d25, 2021-09-20)"
   sodipodi:docname="XenQnt.svg"
   xmlns:inkscape="http://www.inkscape.org/namespaces/inkscape"
   xmlns:sodipodi="http://sodipodi.sourceforge.net/DTD/sodipodi-0.dtd"
   xmlns="http://www.w3.org/2000/svg"
   xmlns:svg="http://www.w3.org/2000/svg">
  <sodipodi:namedview
     id="namedview7"
     pagecolor="#ffffff"
     bordercolor="#666666"
     borderopacity="1.0"
     inkscape:pageshadow="2"
     inkscape:pageopacity="0.0"
     inkscape:pagecheckerboard="0"
     inkscape:document-units="mm"
     showgrid="false"
     inkscape:zoom="1.9704154"
     inkscape:cx="-27.405389"
     inkscape:cy="422.7535"
     inkscape:window-width="1488"
     inkscape:window-height="991"
     inkscape:window-x="26"
     inkscape:window-y="23"
     inkscape:window-maximized="0"
     inkscape:current-layer="layer4" />
  <defs
     id="defs2">
    <rect
       x="-16.647823"
       y="-13.356387"
       width="171.6593"
       height="103.73068"
       id="rect73836" />
  </defs>
  <g
     inkscape:label="Layer 1"
     inkscape:groupmode="layer"
     id="layer1"
     style="display:inline">
    <text
       xml:space="preserve"
       style="font-style:normal;font-weight:normal;font-size:10.5833px;line-height:1.25;font-family:sans-serif;fill:#000000;fill-opacity:1;stroke:none;stroke-width:0.264583"
       x="4.0649972"
       y="8.496438"
       id="text4478"><tspan
         sodipodi:role="line"
         style="stroke-width:0.264583"
         x="4.0649972"
         y="8.496438"
         id="tspan4480" /></text>
  </g>
  <g
     inkscape:groupmode="layer"
     id="layer2"
     inkscape:label="components"
     style="display:none">
    <rect
       style="fill:#ffff00;fill-opacity:1;stroke-width:0.264583"
       id="steps"
       width="5.6071744"
       height="79.299355"
       x="7.4668369"
       y="8.9118395"
       inkscape:label="steps" />
    <ellipse
       style="fill:#00ff00;fill-opacity:1;stroke-width:0.264583"
       id="in"
       cx="10.257071"
       cy="96.854134"
       rx="5.2500033"
       ry="5.112031"
       inkscape:label="cv"
       inkscape:transform-center-x="-0.028929691"
       inkscape:transform-center-y="-0.13500539" />
    <ellipse
       style="fill:#0000ff;stroke-width:0.264583"
       id="out"
       cx="9.9774179"
       cy="109.99044"
       rx="5.0927448"
       ry="4.6625075"
       inkscape:label="pitch" />
  </g>
  <g
     inkscape:groupmode="layer"
     id="layer3"
     inkscape:label="panel">
    <rect
       style="fill:#000000;stroke-width:0.264583"
       id="rect1195"
       width="20.215202"
       height="128.94127"
       x="0.20473345"
       y="0.27742866" />
    <text
       xml:space="preserve"
       style="font-style:normal;font-weight:normal;font-size:10.5833px;line-height:1.25;font-family:sans-serif;fill:#000000;fill-opacity:1;stroke:none;stroke-width:0.264583"
       x="12.146776"
       y="114.72491"
       id="text23103"><tspan
         sodipodi:role="line"
         id="tspan23101"
         style="stroke-width:0.264583"
         x="12.146776"
         y="114.72491">h</tspan></text>
    <rect
       style="fill:#ff0000;stroke-width:0.264583"
       id="rect40261"
       width="0.19063948"
       height="7.2257557"
       x="26.653921"
       y="52.943623"
       ry="0.09531974" />
    <g
       aria-label="XEN"
       id="text4194"
       style="font-size:5.29167px;line-height:1.25;font-family:'Latin Modern Sans Demi Cond';-inkscape-font-specification:'Latin Modern Sans Demi Cond, Normal';fill:#aaccff;stroke-width:0.264583">
      <path
         d="M 8.4752597,10.303678 7.2423007,8.5045104 8.2318429,6.9752178 c 0.03175,-0.052917 0.042333,-0.0635 0.042333,-0.089958 0,-0.111125 -0.1058334,-0.111125 -0.1799168,-0.111125 H 7.8349677 c -0.089958,0 -0.1693334,0 -0.2275418,0.09525 L 6.9300921,7.9541767 6.2315917,6.8852594 c -0.0635,-0.1005417 -0.09525,-0.111125 -0.2328335,-0.111125 H 5.7024247 c -0.079375,0 -0.1799167,0 -0.1799167,0.1058334 0,0.037042 0.010583,0.052917 0.047625,0.1058334 L 6.6178836,8.5045104 5.4907579,10.234886 c -0.042333,0.0635 -0.042333,0.07938 -0.042333,0.100542 0,0.111125 0.09525,0.111125 0.1799168,0.111125 h 0.2540001 c 0.1164167,0 0.1693334,0 0.2381252,-0.116417 L 6.9300921,8.9966357 7.766176,10.330136 c 0.068792,0.105834 0.1005417,0.116417 0.2381251,0.116417 h 0.2963335 c 0.1111251,0 0.1746251,0 0.1746251,-0.142875 z"
         id="path21147" />
      <path
         d="m 11.433301,10.21372 v -0.04233 c 0,-0.2328331 -0.100541,-0.2328331 -0.264583,-0.2328331 l -0.746126,0.010583 c -0.127,0 -0.6032499,0 -0.6985,0.010583 V 8.7638022 h 1.270001 c 0.105833,0 0.232833,0 0.232833,-0.2116668 0,-0.2169584 -0.121708,-0.2169584 -0.232833,-0.2169584 H 9.724092 V 7.2503846 h 0.2434168 l 1.1218342,0.015875 c 0.179917,0 0.275167,0 0.275167,-0.2381252 0,-0.1481667 -0.01587,-0.2381251 -0.232834,-0.2381251 H 9.3166334 c -0.1852084,0 -0.2381251,0.047625 -0.2381251,0.2381251 v 3.1802935 c 0,0.185209 0.047625,0.238125 0.2381251,0.238125 h 1.8838346 c 0.185208,0 0.232833,-0.05292 0.232833,-0.232833 z"
         id="path21149" />
      <path
         d="M 14.804092,10.21372 V 7.0069678 c 0,-0.1640417 -0.03175,-0.2328334 -0.232833,-0.2328334 h -0.08467 c -0.185208,0 -0.232833,0.052917 -0.232833,0.2328334 v 2.8786684 h -0.0053 C 14.184967,9.6792611 14.142634,9.5893027 14.031509,9.3247192 L 13.031383,6.9858012 C 12.9573,6.811176 12.883216,6.7741344 12.698008,6.7741344 h -0.381 c -0.185209,0 -0.238126,0.047625 -0.238126,0.2381251 v 3.1961685 c 0,0.185209 0.04763,0.238125 0.238126,0.238125 h 0.07938 c 0.185208,0 0.232833,-0.05292 0.232833,-0.232833 V 7.3350514 h 0.0053 c 0.0635,0.2063751 0.105833,0.2963335 0.216958,0.560917 l 1.000126,2.3389176 c 0.07408,0.174626 0.148167,0.211667 0.333375,0.211667 h 0.386292 c 0.185208,0 0.232833,-0.05292 0.232833,-0.232833 z"
         id="path21151" />
    </g>
    <g
       aria-label="QNT"
       id="text7622"
       style="font-size:5.29167px;line-height:1.25;font-family:'Latin Modern Sans Demi Cond';-inkscape-font-specification:'Latin Modern Sans Demi Cond, Normal';fill:#aaccff;stroke-width:0.264583">
      <path
         d="m 8.3729994,13.594508 c 0,-0.227542 -0.010583,-0.836084 -0.3016252,-1.301751 -0.3651252,-0.582084 -0.9472089,-0.661459 -1.2594174,-0.661459 -0.5027087,0 -0.9525006,0.206375 -1.2117924,0.582084 -0.1957918,0.291042 -0.3492503,0.682625 -0.3492503,1.381126 0,0.460375 0.0635,1.021292 0.433917,1.449917 0.2381251,0.275167 0.640292,0.460375 1.1271257,0.460375 0.1481667,0 0.1799167,0 0.3545418,-0.03175 l 0.1905001,0.322792 c 0.1217085,0.1905 0.1217085,0.195792 0.2857502,0.195792 h 0.3175002 c 0.074083,0 0.1746251,0 0.1746251,-0.111125 0,-0.02117 0,-0.03175 -0.074083,-0.148167 L 7.722124,15.234925 C 7.9073324,15.113217 8.0872492,14.90155 8.2142493,14.578758 8.362416,14.20305 8.3729994,13.779716 8.3729994,13.594508 Z m -0.6297088,-0.0053 c 0,0.28575 0,0.899584 -0.3016251,1.248834 L 7.177082,14.441175 c -0.047625,-0.0635 -0.0635,-0.0635 -0.1693335,-0.0635 H 6.7643317 c -0.074083,0 -0.1799168,0 -0.1799168,0.111125 0,0.03175 0.052917,0.127 0.089958,0.185208 l 0.1270001,0.206375 0.1375834,0.232834 c 0,0.02117 -0.127,0.02117 -0.127,0.02117 -0.2275419,0 -0.5715004,-0.08996 -0.7672922,-0.518584 -0.1481667,-0.3175 -0.1640417,-0.687917 -0.1640417,-1.026584 0,-0.381 0.015875,-0.814917 0.2275418,-1.180042 0.1481667,-0.248709 0.4127502,-0.407459 0.7037921,-0.407459 0.3016251,0 0.592667,0.169333 0.7461254,0.481542 0.1587501,0.338667 0.1852084,0.703792 0.1852084,1.105959 z"
         id="path21154" />
      <path
         d="m 11.812577,15.171425 v -3.206752 c 0,-0.164041 -0.03175,-0.232833 -0.232833,-0.232833 h -0.08467 c -0.185208,0 -0.232833,0.05292 -0.232833,0.232833 v 2.878669 h -0.0053 c -0.0635,-0.206375 -0.105833,-0.296334 -0.216958,-0.560917 L 10.039868,11.943507 C 9.9657846,11.768882 9.8917013,11.73184 9.7064928,11.73184 H 9.3254926 c -0.1852085,0 -0.2381252,0.04763 -0.2381252,0.238125 v 3.196169 c 0,0.185208 0.047625,0.238125 0.2381252,0.238125 h 0.079375 c 0.1852085,0 0.2328335,-0.05292 0.2328335,-0.232834 v -2.878668 h 0.00529 c 0.0635,0.206375 0.1058334,0.296333 0.2169584,0.560917 l 1.0001258,2.338918 c 0.07408,0.174625 0.148167,0.211667 0.333375,0.211667 h 0.386292 c 0.185208,0 0.232833,-0.05292 0.232833,-0.232834 z"
         id="path21156" />
      <path
         d="m 15.469119,12.001715 c 0,-0.148167 -0.01587,-0.238125 -0.232834,-0.238125 h -2.571751 c -0.185209,0 -0.238125,0.04763 -0.238125,0.238125 0,0.206375 0.0635,0.238125 0.248708,0.238125 l 0.952501,-0.01587 v 2.942169 c 0,0.185208 0.04763,0.238125 0.238125,0.238125 h 0.174625 c 0.185208,0 0.232833,-0.05292 0.232833,-0.232834 v -2.94746 l 0.952501,0.01587 c 0.185208,0 0.243417,-0.03704 0.243417,-0.238125 z"
         id="path21158" />
    </g>
  </g>
  <g
     inkscape:groupmode="layer"
     id="layer4"
     inkscape:label="brand">
    <circle
       id="path46730"
       style="fill:#442178;stroke:#000000;stroke-width:0.264583"
       cx="23.872101"
       cy="118.99229"
       r="0.035771385" />
    <circle
       id="path46732"
       style="fill:#442178;stroke:#000000;stroke-width:0.264583"
       cx="23.872101"
       cy="118.99229"
       r="0.035771385" />
    <circle
       id="path46734"
       style="fill:#442178;stroke:#000000;stroke-width:0.264583"
       cx="23.872101"
       cy="118.99229"
       r="0.035771385" />
    <circle
       id="path46736"
       style="fill:#442178;stroke:#000000;stroke-width:0.264583"
       cx="8.6640749"
       cy="119.17272"
       r="0.035771385" />
    <circle
       id="path46738"
       style="fill:#442178;stroke:#000000;stroke-width:0.264583"
       cx="21.052263"
       cy="118.9157"
       r="0.035771385" />
    <circle
       id="path46740"
       style="fill:#442178;stroke:#000000;stroke-width:0.264583"
       cx="21.052263"
       cy="118.9157"
       r="0.035771385" />
    <rect
       style="fill:#80b3ff;fill-opacity:1;stroke-width:0.297014"
       id="rect53818"
       width="9.1169996"
       height="9.1169996"
       x="5.6009998"
       y="106.442"
       ry="2.2638884" />
    <g
       aria-label="cv"
       id="text5765"
       style="font-weight:bold;font-size:4.23333px;line-height:1.25;font-family:'Latin Modern Roman';-inkscape-font-specification:'Latin Modern Roman, Bold';fill:#aaccff;stroke-width:0.264583"
       transform="matrix(1.0000683,0,0,1,-0.46981831,-0.502995)">
      <path
         d="m 10.331905,35.825398 c 0,-0.05927 -0.05927,-0.05927 -0.1016,-0.05927 -0.0762,0 -0.08043,0.0085 -0.1016,0.0635 -0.110066,0.266699 -0.3132661,0.347133 -0.529166,0.347133 -0.5884328,0 -0.5884328,-0.6223 -0.5884328,-0.817033 0,-0.237067 0,-0.787399 0.5460995,-0.787399 0.1481666,0 0.2201332,0.0127 0.2751665,0.0254 -0.0762,0.06773 -0.084667,0.156633 -0.084667,0.194733 0,0.186266 0.1481665,0.2667 0.2624668,0.2667 0.131233,0 0.2667,-0.0889 0.2667,-0.2667 0,-0.364067 -0.4910669,-0.389467 -0.7366,-0.389467 -0.757766,0 -1.0710324,0.486833 -1.0710324,0.9779 0,0.563032 0.397933,0.965199 1.0498658,0.965199 0.6857996,0 0.8127996,-0.491066 0.8127996,-0.5207 z"
         id="path11091" />
      <path
         d="m 12.926935,34.640066 v -0.198967 c -0.105833,0.0085 -0.2286,0.0127 -0.334433,0.0127 l -0.385233,-0.0127 v 0.198967 c 0.08043,0 0.2032,0.0127 0.2032,0.04657 0,0 0,0.0085 -0.02117,0.0508 L 11.898233,35.795769 11.3606,34.64007 h 0.2286 v -0.198967 l -0.524933,0.0127 -0.4826,-0.0127 V 34.64007 H 10.8526 l 0.740833,1.591732 c 0.0508,0.105833 0.105833,0.105833 0.160867,0.105833 0.07197,0 0.114299,-0.0127 0.156633,-0.1016 l 0.702732,-1.507065 c 0.0254,-0.05927 0.04233,-0.0889 0.313267,-0.0889 z"
         id="path11093" />
    </g>
    <g
       aria-label="h4n4"
       id="text11110"
       style="font-style:italic;font-weight:bold;font-size:4.23333px;line-height:1.25;font-family:'Latin Modern Roman';-inkscape-font-specification:'Latin Modern Roman, Bold Italic';fill:#aaccff;stroke-width:0.264583">
      <path
         d="m 7.6617999,121.41354 c 0,-0.0593 -0.055033,-0.0593 -0.1185332,-0.0593 -0.080433,0 -0.1015999,0 -0.1185333,0.055 -0.033867,0.11007 -0.1481665,0.51224 -0.3894663,0.51224 -0.021167,0 -0.059267,0 -0.059267,-0.0762 0,-0.0889 0.042333,-0.19897 0.097367,-0.3429 0.059267,-0.15664 0.2497664,-0.65617 0.2497664,-0.89747 0,-0.35137 -0.2497664,-0.47837 -0.5841995,-0.47837 -0.2158998,0 -0.385233,0.0677 -0.5672662,0.2159 l 0.2751665,-1.09643 c 0.00423,-0.0212 0.0127,-0.0466 0.0127,-0.0677 0,-0.0804 -0.0762,-0.0762 -0.1354666,-0.072 l -0.5206996,0.0254 c -0.046567,0.004 -0.1312332,0.004 -0.1312332,0.127 0,0.0762 0.0762,0.0762 0.1142999,0.0762 0.0508,0 0.1269999,0.004 0.1777999,0.008 l -0.6095995,2.45533 c -0.016933,0.0635 -0.016933,0.072 -0.016933,0.0931 0,0.10584 0.080433,0.18204 0.1947331,0.18204 0.0508,0 0.2116665,-0.0212 0.2624665,-0.22437 l 0.2624664,-1.0541 c 0.029633,-0.11853 0.2666998,-0.51647 0.6519328,-0.51647 0.1820332,0 0.1820332,0.16087 0.1820332,0.2413 0,0.254 -0.1947332,0.7747 -0.2709331,0.9652 -0.0381,0.10584 -0.0508,0.14817 -0.0508,0.21167 0,0.23707 0.2158998,0.37677 0.4444997,0.37677 0.4402662,0 0.6476994,-0.5715 0.6476994,-0.6604 z"
         id="path21161" />
      <path
         d="m 9.8334963,121.99774 c 0,-0.0212 -0.046567,-0.1143 -0.1015999,-0.1143 -0.016933,0 -0.021167,0.004 -0.0508,0.0127 -0.1185333,0.0381 -0.2285999,0.0423 -0.2836331,0.0423 l 0.1523998,-0.6223 c 0.016933,-0.0635 0.016933,-0.072 0.016933,-0.0974 0,-0.11853 -0.0889,-0.1778 -0.1904999,-0.1778 -0.2074331,0 -0.2539998,0.18204 -0.2836331,0.3048 l -0.1269999,0.50377 c -0.2497664,-0.0847 -0.3767663,-0.127 -0.5757328,-0.127 h -0.084667 c 1.2572989,-1.04987 1.4604988,-2.26906 1.4604988,-2.2987 0,-0.1651 -0.1481666,-0.18203 -0.1862666,-0.18203 -0.2116664,0 -0.2582331,0.18627 -0.2793997,0.26247 -0.1608666,0.61806 -0.3809997,1.09219 -0.5968995,1.42239 -0.3767664,0.57574 -0.7662327,0.83397 -0.8000993,0.8509 -0.029633,0.0127 -0.1608666,0.072 -0.1608666,0.14817 0,0.0254 0.0508,0.1143 0.1015999,0.1143 0.021167,0 0.033867,-0.008 0.093133,-0.0508 0.059267,-0.0381 0.1058332,-0.0677 0.3936997,-0.0677 0.2116664,0 0.2836331,0.0212 0.5841995,0.12276 l -0.0762,0.30904 c -0.0254,0.11006 -0.0762,0.30056 -0.0762,0.3302 0,0.0931 0.067733,0.1778 0.1904998,0.1778 0.2074332,0 0.2582332,-0.18627 0.2751665,-0.254 0.033867,-0.13547 0.093133,-0.36407 0.1142999,-0.4699 0.1481665,0 0.4910662,-0.0466 0.4910662,-0.1397 z"
         id="path21163" />
      <path
         d="m 12.915359,121.41354 c 0,-0.0593 -0.05503,-0.0593 -0.118534,-0.0593 -0.08043,0 -0.101599,0 -0.118533,0.055 -0.03387,0.11007 -0.148166,0.51224 -0.389466,0.51224 -0.02117,0 -0.05927,0 -0.05927,-0.0762 0,-0.0889 0.04233,-0.19897 0.09737,-0.3429 0.05927,-0.15664 0.249766,-0.65617 0.249766,-0.89747 0,-0.35137 -0.249766,-0.47837 -0.584199,-0.47837 -0.0889,0 -0.3683,0 -0.6477,0.2921 -0.08467,-0.2413 -0.338666,-0.2921 -0.474133,-0.2921 -0.198966,0 -0.304799,0.14394 -0.359833,0.2286 -0.110066,0.1778 -0.1651,0.41487 -0.1651,0.4318 0,0.0593 0.05503,0.0593 0.118534,0.0593 0.1016,0 0.105833,-0.004 0.135466,-0.11007 0.03387,-0.1397 0.110067,-0.4572 0.254,-0.4572 0.0508,0 0.08043,0.0339 0.08043,0.13124 0,0.0804 -0.0085,0.1143 -0.0254,0.18203 l -0.300566,1.2065 c -0.01693,0.0635 -0.01693,0.072 -0.01693,0.0931 0,0.13124 0.1016,0.18204 0.190499,0.18204 0.02963,0 0.211667,-0.008 0.2667,-0.2286 l 0.262467,-1.04987 c 0.02963,-0.12277 0.266699,-0.51647 0.651932,-0.51647 0.182034,0 0.182034,0.16087 0.182034,0.2413 0,0.254 -0.194734,0.7747 -0.270933,0.9652 -0.0381,0.10584 -0.0508,0.14817 -0.0508,0.21167 0,0.23707 0.215899,0.37677 0.444499,0.37677 0.440266,0 0.6477,-0.5715 0.6477,-0.6604 z"
         id="path21165" />
      <path
         d="m 15.087055,121.99774 c 0,-0.0212 -0.04657,-0.1143 -0.1016,-0.1143 -0.01693,0 -0.02117,0.004 -0.0508,0.0127 -0.118533,0.0381 -0.228599,0.0423 -0.283633,0.0423 l 0.1524,-0.6223 c 0.01693,-0.0635 0.01693,-0.072 0.01693,-0.0974 0,-0.11853 -0.0889,-0.1778 -0.190499,-0.1778 -0.207434,0 -0.254,0.18204 -0.283634,0.3048 l -0.126999,0.50377 c -0.249767,-0.0847 -0.376767,-0.127 -0.575733,-0.127 h -0.08467 c 1.257299,-1.04987 1.460499,-2.26906 1.460499,-2.2987 0,-0.1651 -0.148167,-0.18203 -0.186267,-0.18203 -0.211666,0 -0.258233,0.18627 -0.279399,0.26247 -0.160867,0.61806 -0.381,1.09219 -0.5969,1.42239 -0.376766,0.57574 -0.766233,0.83397 -0.800099,0.8509 -0.02963,0.0127 -0.160867,0.072 -0.160867,0.14817 0,0.0254 0.0508,0.1143 0.1016,0.1143 0.02117,0 0.03387,-0.008 0.09313,-0.0508 0.05927,-0.0381 0.105834,-0.0677 0.3937,-0.0677 0.211667,0 0.283633,0.0212 0.5842,0.12276 l -0.0762,0.30904 c -0.0254,0.11006 -0.0762,0.30056 -0.0762,0.3302 0,0.0931 0.06773,0.1778 0.1905,0.1778 0.207433,0 0.258233,-0.18627 0.275166,-0.254 0.03387,-0.13547 0.09313,-0.36407 0.1143,-0.4699 0.148166,0 0.491066,-0.0466 0.491066,-0.1397 z"
         id="path21167" />
    </g>
  </g>
</svg>
